<svg width="24" height="24" viewBox="0 0 24 24" fill="none" xmlns="http://www.w3.org/2000/svg">
<path d="M5.07145 4H4V17.9289C4 18.213 4.11288 18.4856 4.31382 18.6865C4.51476 18.8874 4.78729 19.0003 5.07145 19.0003H19.0003V17.9289H5.07145V4Z" fill="black"/>
<path d="M19.002 7.75006H15.2519V8.82151H17.1751L13.109 12.8877L10.8107 10.5841C10.7609 10.5338 10.7016 10.494 10.6364 10.4668C10.5711 10.4396 10.5011 10.4256 10.4303 10.4256C10.3596 10.4256 10.2896 10.4396 10.2243 10.4668C10.159 10.494 10.0998 10.5338 10.05 10.5841L6.14453 14.4949L6.8999 15.2502L10.4303 11.7198L12.7286 14.0234C12.7784 14.0736 12.8377 14.1135 12.9029 14.1407C12.9682 14.1679 13.0382 14.1819 13.109 14.1819C13.1797 14.1819 13.2497 14.1679 13.315 14.1407C13.3803 14.1135 13.4395 14.0736 13.4893 14.0234L17.9305 9.57689V11.5001H19.002V7.75006Z" fill="black"/>
</svg>
