<svg width="24" height="24" viewBox="0 0 24 24" fill="none" xmlns="http://www.w3.org/2000/svg">
<path d="M1.71429 0H0V22.2857C0 22.7404 0.180612 23.1764 0.502103 23.4979C0.823593 23.8194 1.25963 24 1.71429 24H24V22.2857H1.71429V0Z" fill="#B0B0B0"/>
<path d="M24.0011 6H18.0011V7.71429H21.0783L14.5725 14.22L10.8954 10.5343C10.8157 10.4539 10.7209 10.3902 10.6165 10.3467C10.512 10.3031 10.4 10.2807 10.2868 10.2807C10.1737 10.2807 10.0616 10.3031 9.95719 10.3467C9.85274 10.3902 9.75794 10.4539 9.67826 10.5343L3.42969 16.7914L4.63826 18L10.2868 12.3514L13.964 16.0371C14.0437 16.1175 14.1385 16.1812 14.2429 16.2248C14.3474 16.2683 14.4594 16.2907 14.5725 16.2907C14.6857 16.2907 14.7977 16.2683 14.9022 16.2248C15.0066 16.1812 15.1014 16.1175 15.1811 16.0371L22.2868 8.92286V12H24.0011V6Z" fill="#B0B0B0"/>
</svg>
