<svg width="35" height="35" viewBox="0 0 35 35" fill="none" xmlns="http://www.w3.org/2000/svg">
<path d="M30.0714 29.9916H29.1071C28.0842 29.9916 27.1031 29.5853 26.3797 28.8619C25.6564 28.1386 25.25 27.1575 25.25 26.1345C25.25 27.1575 24.8436 28.1386 24.1203 28.8619C23.3969 29.5853 22.4158 29.9916 21.3929 29.9916C20.3699 29.9916 19.3888 29.5853 18.6654 28.8619C17.9421 28.1386 17.5357 27.1575 17.5357 26.1345C17.5357 27.1575 17.1293 28.1386 16.406 28.8619C15.6826 29.5853 14.7015 29.9916 13.6786 29.9916C12.6556 29.9916 11.6745 29.5853 10.9512 28.8619C10.2278 28.1386 9.82143 27.1575 9.82143 26.1345C9.82143 27.1575 9.41505 28.1386 8.6917 28.8619C7.96834 29.5853 6.98726 29.9916 5.96429 29.9916H5M23.3214 22.2774C22.3282 21.0698 21.0798 20.0972 19.6659 19.4294C18.2521 18.7617 16.7079 18.4153 15.1443 18.4153C13.5807 18.4153 12.0365 18.7617 10.6226 19.4294C9.20881 20.0972 7.96041 21.0698 6.96714 22.2774" stroke="black" stroke-width="1.7" stroke-linecap="round" stroke-linejoin="round"/>
<path d="M16.5717 18.5166C16.6874 14.158 18.0181 10.1852 20.911 8.75805M15.1445 5.09376C16.3947 4.84759 17.6917 5.09041 18.7681 5.77215C19.8445 6.4539 20.6184 7.52262 20.9302 8.75805" stroke="black" stroke-width="1.7" stroke-linecap="round" stroke-linejoin="round"/>
<path d="M27.9697 9.47162C27.0821 8.51316 25.875 7.91177 24.5753 7.78037C23.2756 7.64898 21.9726 7.99664 20.9111 8.75804" stroke="black" stroke-width="1.7" stroke-linecap="round" stroke-linejoin="round"/>
<path d="M13.833 10.8216C14.5887 9.70825 15.7089 8.89311 17.0007 8.51648C18.2925 8.13984 19.6752 8.22526 20.9109 8.75803C22.1503 9.06115 23.2234 9.83412 23.9035 10.9137C24.5836 11.9933 24.8176 13.2949 24.5559 14.5437" stroke="black" stroke-width="1.7" stroke-linecap="round" stroke-linejoin="round"/>
</svg>
