<svg width="35" height="35" viewBox="0 0 35 35" fill="none" xmlns="http://www.w3.org/2000/svg">
<path fill-rule="evenodd" clip-rule="evenodd" d="M16.5214 6H19.2494C21.6235 6 23.5042 6 24.9754 6.19763C26.4892 6.40171 27.715 6.83054 28.6825 7.79671C29.6486 8.76417 30.0775 9.98996 30.2815 11.5038C30.4766 12.9582 30.4792 14.8105 30.4792 17.1458C30.9235 17.5113 31.2761 17.9854 31.4996 18.5266C31.6559 18.9012 31.7166 19.2887 31.745 19.6981C31.7708 20.0908 31.7708 20.57 31.7708 21.1448V21.2094C31.7708 21.7842 31.7708 22.2634 31.745 22.656C31.7288 23.0575 31.6459 23.4534 31.4996 23.8276C31.3212 24.2587 31.0597 24.6504 30.7299 24.9804C30.4001 25.3104 30.0086 25.5722 29.5776 25.7509C29.203 25.9059 28.8155 25.9666 28.406 25.9937C28.2362 26.0052 28.0661 26.0126 27.8958 26.0157V27.6354C27.8958 27.8923 27.7938 28.1388 27.6121 28.3204C27.4304 28.5021 27.184 28.6042 26.9271 28.6042C26.6702 28.6042 26.4238 28.5021 26.2421 28.3204C26.0604 28.1388 25.9583 27.8923 25.9583 27.6354V26.0208H9.8125V27.6354C9.8125 27.8923 9.71044 28.1388 9.52876 28.3204C9.34708 28.5021 9.10068 28.6042 8.84375 28.6042C8.58682 28.6042 8.34042 28.5021 8.15874 28.3204C7.97706 28.1388 7.875 27.8923 7.875 27.6354V26.0144C7.70479 26.0117 7.53467 26.0048 7.36479 25.9937C6.9635 25.9784 6.56757 25.8963 6.19325 25.7509C5.76204 25.5724 5.37023 25.3106 5.04022 24.9806C4.71021 24.6506 4.44847 24.2588 4.26996 23.8276C4.11496 23.453 4.05425 23.0655 4.02713 22.656C4 22.2634 4 21.7842 4 21.2094V21.1448C4 20.57 4 20.0908 4.02583 19.6981C4.05425 19.2874 4.11625 18.9012 4.27125 18.5266C4.49318 17.9893 4.84357 17.5148 5.29167 17.1445C5.29167 14.8118 5.29425 12.9582 5.48929 11.5038C5.69338 9.98996 6.12221 8.76417 7.08838 7.79671C8.05583 6.83054 9.28163 6.40171 10.7955 6.19763C12.268 6 14.1473 6 16.5214 6ZM7.22917 16.3708L7.36479 16.3605C7.689 16.3385 8.07392 16.3346 8.52083 16.3346V15.2974C8.52083 14.1375 8.52083 13.1688 8.62417 12.4015C8.73267 11.5903 8.97292 10.858 9.56063 10.2703C10.1496 9.68125 10.882 9.441 11.6919 9.3325C12.4604 9.22917 13.4292 9.22917 14.5891 9.22917H21.1818C22.343 9.22917 23.3104 9.22917 24.0777 9.3325C24.8888 9.441 25.6212 9.68125 26.2089 10.269C26.7979 10.858 27.0382 11.5903 27.1467 12.4002C27.25 13.1687 27.25 14.1375 27.25 15.2974V16.3333C27.6809 16.3304 28.1117 16.3429 28.5417 16.3708C28.5378 14.3881 28.5158 12.9156 28.3608 11.7621C28.1865 10.4627 27.8584 9.71354 27.312 9.16588C26.7656 8.62079 26.0165 8.29271 24.717 8.11833C23.3905 7.94008 21.6403 7.9375 19.1771 7.9375H16.5938C14.1305 7.9375 12.3816 7.94008 11.0525 8.11833C9.75438 8.29271 9.00521 8.62079 8.45883 9.16717C7.91246 9.71354 7.58438 10.4627 7.41 11.7608C7.255 12.9143 7.23304 14.3868 7.22917 16.3695M25.3125 16.332V15.3633C25.3125 14.1181 25.3099 13.2811 25.226 12.6573C25.1459 12.0618 25.0077 11.806 24.8385 11.6381C24.6693 11.4702 24.4161 11.332 23.8206 11.2506C23.1968 11.168 22.3598 11.1654 21.1146 11.1654H18.8542V16.332H25.3125ZM16.9167 16.332V11.1654H14.6563C13.4111 11.1654 12.5741 11.168 11.9502 11.2519C11.3548 11.332 11.099 11.4702 10.9311 11.6394C10.7632 11.8086 10.625 12.0618 10.5436 12.6573C10.4609 13.2811 10.4583 14.1181 10.4583 15.3633V16.332H16.9167ZM7.49654 18.2915C7.18525 18.3135 7.03413 18.3509 6.93467 18.3922C6.7386 18.4734 6.56044 18.5924 6.4104 18.7424C6.26035 18.8925 6.14135 19.0706 6.06021 19.2667C6.01888 19.3662 5.98142 19.5173 5.95946 19.8286C5.9375 20.1476 5.9375 20.561 5.9375 21.1758C5.9375 21.7906 5.9375 22.204 5.95946 22.523C5.98142 22.8343 6.01888 22.9854 6.06021 23.0849C6.22425 23.4814 6.53813 23.7953 6.93467 23.9593C7.03413 24.0007 7.18525 24.0381 7.49654 24.0601C7.81558 24.082 8.22892 24.082 8.84375 24.082H26.9271C27.5419 24.082 27.9553 24.082 28.2743 24.0601C28.5856 24.0381 28.7367 24.0007 28.8362 23.9593C29.2327 23.7953 29.5466 23.4814 29.7106 23.0849C29.752 22.9854 29.7894 22.8343 29.8114 22.523C29.8333 22.204 29.8333 21.7906 29.8333 21.1758C29.8333 20.561 29.8333 20.1476 29.8114 19.8286C29.7894 19.5173 29.752 19.3662 29.7106 19.2667C29.6295 19.0706 29.5105 18.8925 29.3604 18.7424C29.2104 18.5924 29.0322 18.4734 28.8362 18.3922C28.7367 18.3509 28.5856 18.3135 28.2743 18.2915C27.8255 18.2708 27.3763 18.2639 26.9271 18.2708H8.84375C8.22892 18.2708 7.81558 18.2708 7.49654 18.2928" fill="black"/>
</svg>
