<svg width="24" height="24" viewBox="0 0 24 24" fill="none" xmlns="http://www.w3.org/2000/svg">
<path d="M17.8751 6.12488C17.8752 6.46282 17.7946 6.79591 17.64 7.09647C17.4854 7.39703 17.2612 7.65637 16.9862 7.85296C16.7112 8.04954 16.3932 8.17769 16.0586 8.22676C15.724 8.27582 15.3826 8.24438 15.0626 8.13506L13.6984 10.1983C14.3051 10.776 14.6844 11.5905 14.6876 12.4942L15.9307 12.7087C16.1394 12.2357 16.5136 11.8551 16.983 11.6381C17.4525 11.4212 17.985 11.3827 18.4807 11.5301C18.9764 11.6774 19.4014 12.0004 19.6759 12.4385C19.9505 12.8766 20.0557 13.3997 19.9719 13.9098C19.8882 14.4198 19.6211 14.8819 19.2209 15.2093C18.8207 15.5367 18.3147 15.7069 17.7978 15.6882C17.281 15.6694 16.7887 15.4629 16.4133 15.1073C16.0379 14.7518 15.8051 14.2716 15.7586 13.7568L14.5154 13.5412C14.2535 14.3037 13.7121 14.9385 13.0003 15.3178L13.4721 16.7588C13.5231 16.7545 13.5741 16.7524 13.6251 16.7524C14.1357 16.7526 14.6292 16.9365 15.0152 17.2705C15.4013 17.6045 15.6541 18.0663 15.7274 18.5713C15.8007 19.0764 15.6896 19.5909 15.4144 20.0208C15.1392 20.4506 14.7183 20.7671 14.2288 20.9123C13.7393 21.0574 13.2138 21.0216 12.7486 20.8113C12.2834 20.6009 11.9095 20.2302 11.6953 19.767C11.4811 19.3037 11.441 18.7789 11.5823 18.2885C11.7237 17.7981 12.0369 17.3749 12.4648 17.0964L11.992 15.6523C11.417 15.7419 10.8285 15.6725 10.2902 15.4516C9.75194 15.2307 9.28442 14.8668 8.93835 14.3992L7.20115 15.236C7.23373 15.3825 7.25003 15.534 7.25003 15.6905C7.25018 16.1877 7.07576 16.6692 6.75716 17.0512C6.43857 17.4331 5.996 17.6911 5.50657 17.7804C5.01714 17.8697 4.51188 17.7845 4.07883 17.5397C3.64578 17.2949 3.31241 16.906 3.13679 16.4408C2.96117 15.9756 2.95445 15.4635 3.11779 14.9939C3.28114 14.5242 3.60419 14.1267 4.03066 13.8706C4.45713 13.6145 4.95998 13.5161 5.45159 13.5926C5.94319 13.669 6.39239 13.9154 6.7209 14.2888L8.45597 13.4531C8.29135 12.9249 8.26719 12.363 8.38587 11.8226C8.50454 11.2823 8.76196 10.7821 9.13279 10.3714L8.13934 9.12475C7.66952 9.34091 7.13695 9.37839 6.64145 9.23018C6.14596 9.08197 5.72155 8.75824 5.44779 8.31966C5.17404 7.88109 5.06972 7.35779 5.1544 6.84784C5.23907 6.3379 5.50693 5.87633 5.90776 5.54964C6.30859 5.22296 6.81488 5.05359 7.33171 5.07329C7.84855 5.09298 8.34046 5.30039 8.71523 5.65664C9.09 6.01288 9.32191 6.4935 9.36748 7.00841C9.41306 7.52332 9.26917 8.03716 8.96279 8.45363L9.96579 9.71198C10.4205 9.46243 10.9433 9.31908 11.5001 9.31908C11.9697 9.31908 12.4159 9.41996 12.8176 9.60261L14.1754 7.54995C13.9437 7.29438 13.7777 6.98626 13.6919 6.65222C13.606 6.31817 13.6029 5.96825 13.6827 5.63271C13.7625 5.29716 13.9228 4.98609 14.1499 4.72638C14.3769 4.46666 14.6639 4.26612 14.9859 4.14209C15.3079 4.01806 15.6552 3.97427 15.998 4.0145C16.3407 4.05474 16.6685 4.17779 16.953 4.37302C17.2374 4.56824 17.4701 4.82978 17.6307 5.13501C17.7914 5.44024 17.8753 5.77999 17.8751 6.12488ZM16.8126 6.12488C16.8126 5.84324 16.7006 5.57314 16.5014 5.374C16.3021 5.17485 16.0319 5.06297 15.7501 5.06297C15.4683 5.06297 15.198 5.17485 14.9988 5.374C14.7995 5.57314 14.6876 5.84324 14.6876 6.12488C14.6876 6.40651 14.7995 6.67661 14.9988 6.87575C15.198 7.0749 15.4683 7.18678 15.7501 7.18678C16.0319 7.18678 16.3021 7.0749 16.5014 6.87575C16.7006 6.67661 16.8126 6.40651 16.8126 6.12488ZM7.25003 8.25824C7.53182 8.25824 7.80207 8.14636 8.00133 7.94721C8.20059 7.74807 8.31253 7.47797 8.31253 7.19634C8.31253 6.9147 8.20059 6.6446 8.00133 6.44546C7.80207 6.24631 7.53182 6.13443 7.25003 6.13443C6.96823 6.13443 6.69798 6.24631 6.49872 6.44546C6.29946 6.6446 6.18752 6.9147 6.18752 7.19634C6.18752 7.47797 6.29946 7.74807 6.49872 7.94721C6.69798 8.14636 6.96823 8.25824 7.25003 8.25824ZM11.5001 14.6297C12.0636 14.6297 12.6041 14.4059 13.0027 14.0076C13.4012 13.6093 13.6251 13.0691 13.6251 12.5058C13.6251 11.9426 13.4012 11.4024 13.0027 11.0041C12.6041 10.6058 12.0636 10.382 11.5001 10.382C10.9365 10.382 10.396 10.6058 9.99744 11.0041C9.59892 11.4024 9.37504 11.9426 9.37504 12.5058C9.37504 13.0691 9.59892 13.6093 9.99744 14.0076C10.396 14.4059 10.9365 14.6297 11.5001 14.6297ZM6.18752 15.6916C6.18752 15.4099 6.07558 15.1398 5.87632 14.9407C5.67706 14.7415 5.40681 14.6297 5.12501 14.6297C4.84322 14.6297 4.57297 14.7415 4.37371 14.9407C4.17445 15.1398 4.06251 15.4099 4.06251 15.6916C4.06251 15.9732 4.17445 16.2433 4.37371 16.4424C4.57297 16.6416 4.84322 16.7535 5.12501 16.7535C5.40681 16.7535 5.67706 16.6416 5.87632 16.4424C6.07558 16.2433 6.18752 15.9732 6.18752 15.6916ZM14.6876 18.8773C14.6876 18.5956 14.5756 18.3255 14.3764 18.1264C14.1771 17.9272 13.9069 17.8154 13.6251 17.8154C13.3433 17.8154 13.073 17.9272 12.8738 18.1264C12.6745 18.3255 12.5626 18.5956 12.5626 18.8773C12.5626 19.1589 12.6745 19.429 12.8738 19.6281C13.073 19.8273 13.3433 19.9392 13.6251 19.9392C13.9069 19.9392 14.1771 19.8273 14.3764 19.6281C14.5756 19.429 14.6876 19.1589 14.6876 18.8773ZM17.8751 14.6297C18.1569 14.6297 18.4271 14.5178 18.6264 14.3186C18.8257 14.1195 18.9376 13.8494 18.9376 13.5677C18.9376 13.2861 18.8257 13.016 18.6264 12.8169C18.4271 12.6177 18.1569 12.5058 17.8751 12.5058C17.5933 12.5058 17.323 12.6177 17.1238 12.8169C16.9245 13.016 16.8126 13.2861 16.8126 13.5677C16.8126 13.8494 16.9245 14.1195 17.1238 14.3186C17.323 14.5178 17.5933 14.6297 17.8751 14.6297Z" fill="black"/>
</svg>
