<svg width="22" height="19" viewBox="0 0 22 19" fill="none" xmlns="http://www.w3.org/2000/svg">
<path fill-rule="evenodd" clip-rule="evenodd" d="M17.2857 7.12844C17.9109 7.12844 18.5104 6.8781 18.9525 6.43248C19.3945 5.98687 19.6429 5.38249 19.6429 4.75229C19.6429 4.1221 19.3945 3.51772 18.9525 3.0721C18.5104 2.62649 17.9109 2.37615 17.2857 2.37615C16.6606 2.37615 16.061 2.62649 15.619 3.0721C15.1769 3.51772 14.9286 4.1221 14.9286 4.75229C14.9286 5.38249 15.1769 5.98687 15.619 6.43248C16.061 6.8781 16.6606 7.12844 17.2857 7.12844ZM17.2857 9.50459C18.1674 9.50451 19.0314 9.25517 19.7796 8.78489C20.5278 8.31462 21.1302 7.64226 21.5183 6.84418C21.9064 6.0461 22.0647 5.15429 21.9753 4.27006C21.8858 3.38583 21.5521 2.54461 21.0121 1.84196C20.4722 1.13931 19.7476 0.603386 18.9206 0.295072C18.0936 -0.0132415 17.1975 -0.0815915 16.3339 0.0977859C15.4703 0.277163 14.674 0.697078 14.0353 1.30983C13.3966 1.92259 12.9411 2.70362 12.7207 3.56422H1.17857C0.865995 3.56422 0.566221 3.68939 0.345196 3.9122C0.124171 4.13501 2.71714e-07 4.4372 2.71714e-07 4.75229C2.71714e-07 5.06739 0.124171 5.36958 0.345196 5.59239C0.566221 5.8152 0.865995 5.94037 1.17857 5.94037H12.7207C12.982 6.96054 13.5722 7.86426 14.3986 8.50944C15.2249 9.15462 16.2405 9.50468 17.2857 9.50459ZM7.07143 14.2569C7.07143 14.8871 6.82309 15.4915 6.38104 15.9371C5.93899 16.3827 5.33944 16.633 4.71429 16.633C4.08913 16.633 3.48958 16.3827 3.04753 15.9371C2.60548 15.4915 2.35714 14.8871 2.35714 14.2569C2.35714 13.6267 2.60548 13.0223 3.04753 12.5767C3.48958 12.1311 4.08913 11.8807 4.71429 11.8807C5.33944 11.8807 5.93899 12.1311 6.38104 12.5767C6.82309 13.0223 7.07143 13.6267 7.07143 14.2569ZM9.27929 15.445C8.99029 16.5628 8.30739 17.5364 7.3582 18.1837C6.40901 18.8309 5.25849 19.1077 4.12165 18.9621C2.98481 18.8165 1.93945 18.2587 1.18091 17.3927C0.422384 16.5268 0.00259545 15.4121 2.71714e-07 14.2569C-0.000389193 13.0999 0.417917 11.9826 1.17647 11.1143C1.93503 10.2461 2.98173 9.68662 4.12029 9.54085C5.25885 9.39507 6.41106 9.673 7.36084 10.3225C8.31063 10.972 8.99275 11.9485 9.27929 13.0688H20.8214C21.134 13.0688 21.4338 13.194 21.6548 13.4168C21.8758 13.6396 22 13.9418 22 14.2569C22 14.572 21.8758 14.8742 21.6548 15.097C21.4338 15.3198 21.134 15.445 20.8214 15.445H9.27929Z" fill="#ADADAD"/>
</svg>
