<svg width="24" height="25" viewBox="0 0 24 25" fill="none" xmlns="http://www.w3.org/2000/svg">
<path d="M2.44726 4.89452H4.89452V6.11815C4.89452 7.46415 5.99579 8.56541 7.34178 8.56541H14.6836C16.0296 8.56541 17.1308 7.46415 17.1308 6.11815V4.89452H19.5781V11.0127H22.0254V4.89452C22.0254 3.54853 20.9241 2.44726 19.5781 2.44726H14.4633C13.9494 1.02785 12.6034 0 11.0127 0C9.42196 0 8.07596 1.02785 7.56204 2.44726H2.44726C1.10127 2.44726 0 3.54853 0 4.89452V22.0254C0 23.3713 1.10127 24.4726 2.44726 24.4726H9.78904V22.0254H2.44726V4.89452ZM11.0127 2.44726C11.6857 2.44726 12.2363 2.9979 12.2363 3.67089C12.2363 4.34389 11.6857 4.89452 11.0127 4.89452C10.3397 4.89452 9.78904 4.34389 9.78904 3.67089C9.78904 2.9979 10.3397 2.44726 11.0127 2.44726Z" fill="#B0B0B0"/>
<path d="M23.6253 15.0599C23.1236 14.5582 22.2915 14.5582 21.7898 15.0599L15.9898 20.8721L13.2244 18.1189C12.7227 17.6172 11.9029 17.6172 11.389 18.1189C10.8873 18.6206 10.8873 19.4527 11.389 19.9544L15.121 23.6742C15.5983 24.1514 16.3691 24.1514 16.8464 23.6742L23.613 16.8953C24.127 16.3936 24.127 15.5615 23.6253 15.0599Z" fill="#B0B0B0"/>
</svg>
