<svg width="24" height="24" viewBox="0 0 24 24" fill="none" xmlns="http://www.w3.org/2000/svg">
<path d="M12.9284 4.1823C12.3324 3.93923 11.6676 3.93923 11.0716 4.1823L5.0688 6.63076C4.75338 6.75937 4.48297 6.9814 4.29247 7.2682C4.10196 7.555 4.0001 7.89342 4 8.23982V15.7602C4.0001 16.1066 4.10196 16.445 4.29247 16.7318C4.48297 17.0186 4.75338 17.2406 5.0688 17.3692L11.0716 19.8177C11.6676 20.0608 12.3324 20.0608 12.9284 19.8177L18.9312 17.3692C19.2466 17.2407 19.5169 17.0187 19.7074 16.732C19.8979 16.4452 19.9998 16.1069 20 15.7606V8.24023C20 7.89376 19.8982 7.55525 19.7076 7.26837C19.5171 6.98149 19.2467 6.7594 18.9312 6.63076L12.9284 4.1823ZM11.4428 5.12897C11.8005 4.98305 12.1995 4.98305 12.5572 5.12897L18.1536 7.41184L15.75 8.39195L9.5964 5.88231L11.4428 5.12897ZM8.25 6.43131L14.4036 8.94136L12 9.92148L5.8464 7.41184L8.25 6.43131ZM5.0036 8.1664L11.5 10.8159V18.8935L11.4428 18.8714L5.44 16.423C5.3101 16.37 5.19875 16.2785 5.12032 16.1604C5.04189 16.0422 4.99998 15.9028 5 15.7602V8.24023C5 8.21521 5.00133 8.1906 5.004 8.1664M12.5 18.8935V10.8159L18.996 8.1664C18.9987 8.19087 19 8.21535 19 8.23982V15.7602C19 15.9028 18.9581 16.0422 18.8797 16.1604C18.8012 16.2785 18.6899 16.37 18.56 16.423L12.5572 18.8714L12.5 18.8935Z" fill="black"/>
</svg>
