<svg width="35" height="35" viewBox="0 0 35 35" fill="none" xmlns="http://www.w3.org/2000/svg">
<path d="M4 30.9566C5.28249 30.9566 6.55014 31.0741 7.61528 30.2438C8.66017 29.4284 10.322 29.4554 11.3264 30.3032C12.4199 31.228 14.4854 31.201 15.6059 30.3302C16.6913 29.4824 18.3383 29.3852 19.4264 30.3032C20.6198 31.3117 22.6299 31.1672 23.8152 30.2438C24.8601 29.4284 26.5219 29.4554 27.5263 30.3032C28.4929 31.12 29.8119 30.9566 30.9998 30.9566M4 25.5567C5.28249 25.5567 6.55014 25.6741 7.61528 24.8439C8.66017 24.0285 10.322 24.0555 11.3264 24.9033C12.4199 25.828 14.4854 25.801 15.6059 24.9303C16.6913 24.0825 18.3383 23.9853 19.4264 24.9033C20.6198 25.9117 22.6299 25.7673 23.8152 24.8439C24.8601 24.0285 26.5219 24.0555 27.5263 24.9033C28.4929 25.72 29.8119 25.5567 30.9998 25.5567M4 20.1999H30.9998M9.39997 20.1999V5.34998M9.39997 5.34998C9.06247 6.25042 7.77998 8.72496 5.34999 8.72496M9.39997 5.34998C9.73747 6.25042 11.02 8.72496 13.4499 8.72496M5.34999 12.7749C7.77998 12.7749 9.06247 10.3004 9.39997 9.39995C9.73747 10.3004 11.02 12.7749 13.4499 12.7749" stroke="black" stroke-width="1.7" stroke-linecap="round" stroke-linejoin="round"/>
<path d="M24.9248 10.75C26.7887 10.75 28.2998 9.23893 28.2998 7.37498C28.2998 5.51103 26.7887 4 24.9248 4C23.0608 4 21.5498 5.51103 21.5498 7.37498C21.5498 9.23893 23.0608 10.75 24.9248 10.75Z" stroke="black" stroke-width="1.7" stroke-linecap="round" stroke-linejoin="round"/>
</svg>
