<svg width="27" height="27" viewBox="0 0 27 27" fill="none" xmlns="http://www.w3.org/2000/svg">
<path fill-rule="evenodd" clip-rule="evenodd" d="M15.3746 7.86876C15.0063 8.12412 14.5908 8.30357 14.1524 8.39663C13.714 8.48969 13.2615 8.4945 12.8212 8.41079C12.3809 8.32707 11.9617 8.1565 11.588 7.90903C11.2144 7.66157 10.8938 7.34216 10.6449 6.96944C10.396 6.59673 10.2238 6.17818 10.1384 5.73822C10.053 5.29825 10.0561 4.84569 10.1475 4.40693C10.2389 3.96818 10.4168 3.55202 10.6708 3.18275C10.9247 2.81347 11.2497 2.49847 11.6267 2.25613C12.371 1.7645 13.2797 1.58753 14.1541 1.76392C15.0286 1.9403 15.7976 2.4557 16.2931 3.19744C16.7887 3.93918 16.9704 4.84694 16.7986 5.72228C16.6268 6.59762 16.1154 7.36934 15.3763 7.86876H15.3746ZM14.4381 3.66013C14.2543 3.52793 14.0458 3.43405 13.825 3.38409C13.6042 3.33414 13.3756 3.32912 13.1528 3.36934C12.93 3.40956 12.7176 3.4942 12.5282 3.61822C12.3388 3.74223 12.1763 3.90309 12.0503 4.09121C11.9244 4.27933 11.8376 4.49087 11.7951 4.71324C11.7526 4.9356 11.7553 5.16424 11.803 5.38555C11.8507 5.60686 11.9424 5.8163 12.0727 6.00142C12.2031 6.18653 12.3693 6.34353 12.5616 6.46307C12.933 6.68871 13.3772 6.76234 13.8015 6.66863C14.2259 6.57491 14.5978 6.32108 14.8397 5.96C15.0815 5.59892 15.1748 5.15845 15.1 4.73033C15.0252 4.30221 14.7881 3.91946 14.4381 3.66182V3.66013ZM18.8424 3.71076C19.3291 3.38339 19.9147 3.23596 20.4984 3.29387C21.0821 3.35178 21.6274 3.61139 22.0402 4.02801C22.3345 4.32459 22.5514 4.68882 22.672 5.08877C22.7927 5.48873 22.8134 5.91217 22.7322 6.32197C22.6511 6.73177 22.4707 7.11541 22.2067 7.43922C21.9428 7.76304 21.6034 8.01715 21.2184 8.17926C20.7561 8.37306 20.2464 8.42423 19.7548 8.3262C19.2631 8.22818 18.812 7.98543 18.4594 7.62913C18.1941 7.36254 17.9911 7.04061 17.8648 6.68638C17.7385 6.33216 17.6921 5.9544 17.7289 5.58014C17.7656 5.20587 17.8847 4.84437 18.0775 4.52149C18.2703 4.19861 18.5321 3.92234 18.8441 3.71245L18.8424 3.71076ZM19.6524 6.42763C19.8109 6.5854 20.0255 6.67376 20.2491 6.67329C20.3598 6.67305 20.4693 6.65101 20.5715 6.60843C20.6737 6.56585 20.7665 6.50355 20.8446 6.4251C20.9228 6.34665 20.9847 6.25359 21.0268 6.15122C21.069 6.04885 21.0905 5.93918 21.0903 5.82847C21.0901 5.71776 21.068 5.60818 21.0254 5.50599C20.9829 5.4038 20.9206 5.311 20.8421 5.23288C20.6859 5.0735 20.4729 4.98249 20.2498 4.97976C20.1386 4.97976 20.0284 5.00175 19.9257 5.04447C19.823 5.08719 19.7298 5.14979 19.6514 5.22868C19.573 5.30756 19.5109 5.40117 19.4688 5.50413C19.4267 5.60708 19.4054 5.71734 19.4061 5.82857C19.4054 5.94002 19.4268 6.05048 19.4691 6.1536C19.5114 6.25671 19.5737 6.34873 19.6524 6.42763ZM5.38293 21.0718H8.4373V22.7677H5.38293C4.84835 22.7623 4.33758 22.5458 3.96205 22.1653C3.77477 21.9764 3.62652 21.7526 3.52576 21.5065C3.425 21.2604 3.3737 20.9968 3.3748 20.7309V17.6765C3.14766 17.6686 2.92445 17.6149 2.71856 17.5187C2.51268 17.4224 2.32836 17.2855 2.17668 17.1163C2.01513 16.9536 1.88843 16.7597 1.80429 16.5465C1.72015 16.3332 1.68035 16.1051 1.6873 15.8759V12.1938C1.69236 11.3973 2.00793 10.6363 2.5648 10.0709C3.11999 9.51238 3.87093 9.19345 4.6573 9.18839H7.7623C7.34303 9.68685 7.02749 10.264 6.83418 10.886H4.6573C4.31488 10.8962 3.98913 11.0361 3.74605 11.2775C3.50793 11.5231 3.37478 11.8517 3.3748 12.1938V15.9603H5.0623V20.7292C5.05819 20.7752 5.06355 20.8215 5.07807 20.8654C5.09258 20.9092 5.11593 20.9496 5.14668 20.984C5.21451 21.0364 5.29723 21.066 5.38293 21.0684V21.0718ZM17.7017 10.0726C17.4253 9.7942 17.0967 9.57295 16.7348 9.42151C16.3729 9.27008 15.9846 9.19144 15.5923 9.19007H11.4073C10.6208 9.19728 9.86889 9.51441 9.3148 10.0726C8.75793 10.6379 8.44236 11.399 8.4373 12.1955V17.5584C8.43491 18.0189 8.6102 18.4625 8.92668 18.797C9.07836 18.9663 9.26268 19.1031 9.46856 19.1994C9.67445 19.2957 9.89766 19.3494 10.1248 19.3573V23.2773C10.123 23.5449 10.1743 23.8102 10.2757 24.0578C10.3771 24.3055 10.5265 24.5306 10.7154 24.7201C11.0192 25.0036 11.4022 25.1876 11.8123 25.2466H15.1873C15.662 25.1843 16.0968 24.9488 16.4083 24.5853C16.7198 24.2217 16.886 23.7559 16.8748 23.2773V19.3556C17.1019 19.3477 17.3252 19.294 17.531 19.1977C17.7369 19.1014 17.9212 18.9646 18.0729 18.7953C18.2343 18.6329 18.3608 18.4393 18.445 18.2263C18.5291 18.0134 18.569 17.7856 18.5623 17.5567V12.1938C18.5635 11.401 18.2546 10.6408 17.7017 10.0726ZM16.8748 17.6411H15.1873V23.2773C15.186 23.3663 15.1496 23.4513 15.0861 23.5136C15.0573 23.5477 15.0209 23.5746 14.9799 23.5921C14.9389 23.6097 14.8943 23.6175 14.8498 23.6148H12.1329C12.0447 23.6107 11.9613 23.5738 11.8988 23.5114C11.8364 23.449 11.7995 23.3655 11.7954 23.2773V17.6411H10.1248V12.1938C10.1248 11.8513 10.2581 11.5222 10.496 11.2775C10.7391 11.0361 11.0649 10.8962 11.4073 10.886H15.5923C15.8478 10.8909 16.0964 10.9702 16.3077 11.114C16.5189 11.2578 16.6837 11.4601 16.782 11.696C16.844 11.8546 16.8755 12.0235 16.8748 12.1938V17.6411ZM21.6167 22.766H18.5623V21.0701H21.5998C21.6855 21.0677 21.7682 21.0381 21.8361 20.9857C21.87 20.9525 21.8966 20.9125 21.9141 20.8683C21.9315 20.8241 21.9394 20.7767 21.9373 20.7292V15.9603H23.6248V12.1938C23.6248 11.8517 23.4917 11.5231 23.2536 11.2775C23.0105 11.0361 22.6847 10.8962 22.3423 10.886H20.1654C19.9721 10.264 19.6566 9.68685 19.2373 9.18839H22.3423C23.1288 9.19559 23.8807 9.51273 24.4348 10.0709C24.9917 10.6363 25.3072 11.3973 25.3123 12.1938V15.8759C25.3123 16.3366 25.1385 16.7788 24.8246 17.1129C24.5107 17.4487 24.0821 17.6495 23.6248 17.6748V20.7292C23.6248 21.2675 23.4139 21.7822 23.0376 22.1636C22.662 22.5441 22.1513 22.7606 21.6167 22.766ZM6.7498 3.28213C6.24744 3.28064 5.75615 3.42966 5.33928 3.70999C4.9224 3.99031 4.59906 4.38908 4.41093 4.85488C4.22095 5.3201 4.17182 5.83088 4.26962 6.32378C4.36742 6.81668 4.60785 7.27 4.96105 7.62745C5.31469 7.98412 5.76663 8.22728 6.25914 8.32586C6.75164 8.42444 7.26236 8.37396 7.72604 8.18089C8.18972 7.98781 8.58532 7.66089 8.8623 7.24189C9.13928 6.82289 9.28507 6.33083 9.28105 5.82857C9.28105 5.15357 9.01443 4.50557 8.53855 4.02801C8.304 3.79228 8.02531 3.60508 7.71839 3.4771C7.41146 3.34912 7.08233 3.28287 6.7498 3.28213ZM6.7498 6.67738C6.63857 6.67739 6.52844 6.6554 6.42574 6.61268C6.32304 6.56996 6.2298 6.50736 6.15138 6.42847C6.07297 6.34958 6.01092 6.25597 5.96882 6.15302C5.92671 6.05006 5.90538 5.9398 5.90605 5.82857C5.90649 5.60446 5.99536 5.38958 6.15336 5.23064C6.31135 5.0717 6.5257 4.98154 6.7498 4.97976C6.97308 4.98412 7.18593 5.0751 7.34338 5.23349C7.50082 5.39188 7.59053 5.60527 7.59355 5.82857C7.59311 6.05268 7.50424 6.26756 7.34624 6.4265C7.18825 6.58545 6.9739 6.67561 6.7498 6.67738Z" fill="#B0B0B0"/>
</svg>
