<svg width="24" height="24" viewBox="0 0 24 24" fill="none" xmlns="http://www.w3.org/2000/svg">
<path d="M11.5 4.00002C10.7458 3.99704 10.0182 4.27826 9.46205 4.78767C8.90591 5.29708 8.56207 5.9973 8.49902 6.74885C8.43597 7.50039 8.65834 8.24811 9.12184 8.84306C9.58533 9.43802 10.2559 9.83654 11.0001 9.95925V11.499H8.00047C7.6027 11.499 7.22122 11.6571 6.93995 11.9383C6.65868 12.2196 6.50067 12.6011 6.50067 12.9989V14.0407C5.7588 14.1661 5.0911 14.5656 4.62989 15.16C4.16867 15.7545 3.94761 16.5005 4.01051 17.2502C4.07341 18 4.41568 18.6988 4.96948 19.2081C5.52329 19.7173 6.24822 20 7.0006 20C7.75299 20 8.47792 19.7173 9.03172 19.2081C9.58553 18.6988 9.9278 18 9.9907 17.2502C10.0536 16.5005 9.83253 15.7545 9.37132 15.16C8.91011 14.5656 8.2424 14.1661 7.50054 14.0407V12.9989C7.50054 12.8663 7.55321 12.7391 7.64696 12.6453C7.74072 12.5516 7.86788 12.4989 8.00047 12.4989H14.9995C15.1321 12.4989 15.2593 12.5516 15.353 12.6453C15.4468 12.7391 15.4995 12.8663 15.4995 12.9989V14.0407C14.7576 14.1661 14.0899 14.5656 13.6287 15.16C13.1675 15.7545 12.9464 16.5005 13.0093 17.2502C13.0722 18 13.4145 18.6988 13.9683 19.2081C14.5221 19.7173 15.247 20 15.9994 20C16.7518 20 17.4767 19.7173 18.0305 19.2081C18.5843 18.6988 18.9266 18 18.9895 17.2502C19.0524 16.5005 18.8313 15.7545 18.3701 15.16C17.9089 14.5656 17.2412 14.1661 16.4993 14.0407V12.9989C16.4993 12.6011 16.3413 12.2196 16.06 11.9383C15.7788 11.6571 15.3973 11.499 14.9995 11.499H11.9999V9.95925C12.7417 9.83382 13.4094 9.43431 13.8705 8.83988C14.3316 8.24546 14.5527 7.49948 14.4898 6.74979C14.4269 6.00009 14.0847 5.30137 13.5309 4.79208C12.9772 4.2828 12.2523 4.0001 11.5 4.00002ZM9.50027 6.99963C9.50027 6.46927 9.71095 5.96063 10.086 5.5856C10.461 5.21058 10.9696 4.99989 11.5 4.99989C12.0304 4.99989 12.539 5.21058 12.914 5.5856C13.289 5.96063 13.4997 6.46927 13.4997 6.99963C13.4997 7.53 13.289 8.03864 12.914 8.41366C12.539 8.78869 12.0304 8.99937 11.5 8.99937C10.9696 8.99937 10.461 8.78869 10.086 8.41366C9.71095 8.03864 9.50027 7.53 9.50027 6.99963ZM5.00087 16.9983C5.00087 16.4678 5.21161 15.9591 5.58673 15.584C5.96184 15.2088 6.47061 14.9981 7.0011 14.9981C7.5316 14.9981 8.04036 15.2088 8.41548 15.584C8.7906 15.9591 9.00134 16.4678 9.00134 16.9983C9.00134 17.5288 8.7906 18.0376 8.41548 18.4127C8.04036 18.7878 7.5316 18.9986 7.0011 18.9986C6.47061 18.9986 5.96184 18.7878 5.58673 18.4127C5.21161 18.0376 5.00087 17.5288 5.00087 16.9983ZM15.9994 14.9986C16.2621 14.9986 16.5222 15.0503 16.7649 15.1509C17.0075 15.2514 17.228 15.3987 17.4138 15.5845C17.5995 15.7702 17.7468 15.9907 17.8474 16.2334C17.9479 16.4761 17.9996 16.7362 17.9996 16.9988C17.9996 17.2615 17.9479 17.5216 17.8474 17.7643C17.7468 18.007 17.5995 18.2275 17.4138 18.4132C17.228 18.599 17.0075 18.7463 16.7649 18.8468C16.5222 18.9473 16.2621 18.9991 15.9994 18.9991C15.4689 18.9991 14.9601 18.7883 14.585 18.4132C14.2099 18.0381 13.9992 17.5293 13.9992 16.9988C13.9992 16.4683 14.2099 15.9596 14.585 15.5845C14.9601 15.2093 15.4689 14.9986 15.9994 14.9986Z" fill="black"/>
</svg>
