<svg width="24" height="24" viewBox="0 0 24 24" fill="none" xmlns="http://www.w3.org/2000/svg">
<path d="M18.675 20.2315L19.221 19.689L17.385 17.8639V15.1575H16.615V18.1838L18.675 20.2315ZM4.615 19.8967C4.16833 19.8967 3.78733 19.7404 3.472 19.4277C3.15733 19.1151 3 18.7365 3 18.2921V5.60457C3 5.16079 3.15733 4.78225 3.472 4.46895C3.78667 4.15632 4.168 4 4.616 4H17.385C17.8317 4 18.2127 4.15632 18.528 4.46895C18.8427 4.78159 19 5.16046 19 5.60556V11.5171C18.8247 11.4569 18.6567 11.4078 18.496 11.3701C18.336 11.333 18.1707 11.2959 18 11.2588V5.60556C18 5.45256 17.936 5.31214 17.808 5.1843C17.68 5.05647 17.5387 4.99288 17.384 4.99354H4.616C4.462 4.99354 4.32067 5.05713 4.192 5.1843C4.06333 5.31148 3.99933 5.4519 4 5.60556V18.2921C4 18.4444 4.064 18.5845 4.192 18.7124C4.32 18.8402 4.461 18.9038 4.615 18.9031H10.281C10.305 19.0886 10.336 19.2611 10.374 19.4208C10.412 19.5797 10.461 19.7384 10.521 19.8967H4.615ZM4 17.9096V18.9031V4.99354V11.2588V11.1843V17.9096ZM6.5 16.1908H10.46C10.4967 16.0205 10.5467 15.8559 10.61 15.697L10.81 15.1962H6.5V16.1908ZM6.5 12.4451H13.08C13.4087 12.2159 13.7323 12.0219 14.051 11.8629C14.3697 11.7033 14.7117 11.5781 15.077 11.4873V11.4516H6.5V12.4451ZM6.5 8.69945H15.5V7.70591H6.5V8.69945ZM17 22C15.886 22 14.941 21.6142 14.165 20.8425C13.3883 20.0709 13 19.1316 13 18.0248C13 16.918 13.3883 15.9788 14.165 15.2072C14.9417 14.4355 15.8867 14.05 17 14.0507C18.1133 14.0513 19.0587 14.4368 19.836 15.2072C20.6133 15.9775 21.0013 16.9167 21 18.0248C21 19.131 20.612 20.0699 19.836 20.8415C19.0587 21.6132 18.1133 21.999 17 21.999" fill="black"/>
</svg>
