<svg width="24" height="24" viewBox="0 0 24 24" fill="none" xmlns="http://www.w3.org/2000/svg">
<path d="M20.9 21.642L21.628 20.9187L19.18 18.4852V14.8766H18.1533V18.9117L20.9 21.642ZM2.15333 21.1956C1.55778 21.1956 1.04978 20.9871 0.629333 20.5703C0.209778 20.1534 0 19.6487 0 19.0561V2.13943C0 1.54772 0.209778 1.043 0.629333 0.625269C1.04889 0.208423 1.55733 0 2.15467 0H19.18C19.7756 0 20.2836 0.208423 20.704 0.625269C21.1236 1.04212 21.3333 1.54728 21.3333 2.14075V10.0229C21.0996 9.94248 20.8756 9.87713 20.6613 9.82679C20.448 9.77734 20.2276 9.72788 20 9.67842V2.14075C20 1.93674 19.9147 1.74952 19.744 1.57907C19.5733 1.40862 19.3849 1.32384 19.1787 1.32472H2.15467C1.94933 1.32472 1.76089 1.4095 1.58933 1.57907C1.41778 1.74863 1.33244 1.93586 1.33333 2.14075V19.0561C1.33333 19.2593 1.41867 19.446 1.58933 19.6165C1.76 19.7869 1.948 19.8717 2.15333 19.8708H9.708C9.74 20.1181 9.78133 20.3482 9.832 20.561C9.88266 20.773 9.948 20.9845 10.028 21.1956H2.15333ZM1.33333 18.5461V19.8708V1.32472V9.67842V9.57907V18.5461ZM4.66667 16.2543H9.94667C9.99555 16.0274 10.0622 15.8079 10.1467 15.596L10.4133 14.9283H4.66667V16.2543ZM4.66667 11.2601H13.44C13.8782 10.9546 14.3098 10.6958 14.7347 10.4839C15.1596 10.271 15.6156 10.1041 16.1027 9.98311V9.93542H4.66667V11.2601ZM4.66667 6.26594H16.6667V4.94122H4.66667V6.26594ZM18.6667 24C17.1813 24 15.9213 23.4856 14.8867 22.4567C13.8511 21.4278 13.3333 20.1755 13.3333 18.6998C13.3333 17.224 13.8511 15.9717 14.8867 14.9429C15.9222 13.914 17.1822 13.4 18.6667 13.4009C20.1511 13.4018 21.4116 13.9158 22.448 14.9429C23.4844 15.97 24.0018 17.2223 24 18.6998C24 20.1746 23.4827 21.4265 22.448 22.4554C21.4116 23.4842 20.1511 23.9987 18.6667 23.9987" fill="black"/>
</svg>
