<svg width="35" height="35" viewBox="0 0 35 35" fill="none" xmlns="http://www.w3.org/2000/svg">
<path d="M9.5 8.5C9.5 8.03587 9.68437 7.59075 10.0126 7.26256C10.3408 6.93437 10.7859 6.75 11.25 6.75C11.7141 6.75 12.1592 6.93437 12.4874 7.26256C12.8156 7.59075 13 8.03587 13 8.5V17.3322C13.5623 17.3964 14.1457 17.5072 14.75 17.6647V15.5H23.5V20.7552C24.1423 20.764 24.7285 20.6992 25.25 20.5977V8.5C25.25 7.57174 24.8813 6.6815 24.2249 6.02513C23.5685 5.36875 22.6783 5 21.75 5C20.8217 5 19.9315 5.36875 19.2751 6.02513C18.6187 6.6815 18.25 7.57174 18.25 8.5V9.375C18.25 9.60706 18.3422 9.82962 18.5063 9.99372C18.6704 10.1578 18.8929 10.25 19.125 10.25C19.3571 10.25 19.5796 10.1578 19.7437 9.99372C19.9078 9.82962 20 9.60706 20 9.375V8.5C20 8.03587 20.1844 7.59075 20.5126 7.26256C20.8408 6.93437 21.2859 6.75 21.75 6.75C22.2141 6.75 22.6592 6.93437 22.9874 7.26256C23.3156 7.59075 23.5 8.03587 23.5 8.5V13.75H14.75V8.5C14.75 7.57174 14.3813 6.6815 13.7249 6.02513C13.0685 5.36875 12.1783 5 11.25 5C10.3217 5 9.4315 5.36875 8.77513 6.02513C8.11875 6.6815 7.75 7.57174 7.75 8.5V9.375C7.75 9.60706 7.84219 9.82962 8.00628 9.99372C8.17038 10.1578 8.39294 10.25 8.625 10.25C8.85706 10.25 9.07962 10.1578 9.24372 9.99372C9.40781 9.82962 9.5 9.60706 9.5 9.375V8.5ZM23.6312 24.25C21.6887 24.25 19.398 23.781 16.9322 22.36C10.9507 18.9107 7.6275 22.101 7.505 22.2217C7.33913 22.3844 7.11607 22.4755 6.88375 22.4755C6.65143 22.4755 6.42837 22.3844 6.2625 22.2217C6.17982 22.1439 6.11393 22.0499 6.0689 21.9456C6.02387 21.8413 6.00064 21.729 6.00064 21.6154C6.00064 21.5018 6.02387 21.3894 6.0689 21.2851C6.11393 21.1808 6.17982 21.0869 6.2625 21.009C6.448 20.8235 10.6112 16.6987 17.8247 20.834C24.0863 24.4407 28.9145 21.044 29.107 20.904C29.2963 20.7711 29.5299 20.7169 29.7584 20.7528C29.9869 20.7887 30.1926 20.9119 30.332 21.0965C30.612 21.4762 30.542 22.0135 30.1395 22.3092C29.982 22.43 27.4445 24.2342 23.6312 24.2342V24.25ZM16.9322 27.61C19.3997 29.0327 21.6905 29.5 23.6312 29.5V29.4825C27.4462 29.4825 29.9802 27.68 30.1377 27.5575C30.2312 27.4914 30.3105 27.4074 30.3709 27.3102C30.4314 27.213 30.4717 27.1047 30.4897 26.9917C30.5076 26.8787 30.5027 26.7632 30.4754 26.6521C30.448 26.541 30.3986 26.4365 30.3302 26.3447C30.1906 26.1604 29.9848 26.0375 29.7563 26.002C29.5278 25.9664 29.2944 26.0209 29.1052 26.154C28.9127 26.294 24.0863 29.6907 17.8247 26.084C10.6112 21.9487 6.44975 26.0735 6.2625 26.259C5.9125 26.5862 5.9125 27.1427 6.2625 27.4717C6.6125 27.8182 7.1725 27.8007 7.505 27.4717C7.6275 27.3492 10.9507 24.159 16.9322 27.61Z" fill="black"/>
</svg>
