<svg width="24" height="24" viewBox="0 0 24 24" fill="none" xmlns="http://www.w3.org/2000/svg">
<path d="M12.9996 4C11.9386 4 10.9211 4.42143 10.171 5.17159C9.42077 5.92174 8.99931 6.93917 8.99931 8.00005C8.99931 9.06093 9.42077 10.0784 10.171 10.8285C10.9211 11.5787 11.9386 12.0001 12.9996 12.0001C14.0605 12.0001 15.078 11.5787 15.8282 10.8285C16.5784 10.0784 16.9998 9.06093 16.9998 8.00005C16.9998 6.93917 16.5784 5.92174 15.8282 5.17159C15.078 4.42143 14.0605 4 12.9996 4ZM9.99937 8.00005C9.99937 7.20439 10.3155 6.44132 10.8781 5.8787C11.4408 5.31609 12.2039 5.00001 12.9996 5.00001C13.7953 5.00001 14.5584 5.31609 15.121 5.8787C15.6837 6.44132 15.9997 7.20439 15.9997 8.00005C15.9997 8.79571 15.6837 9.55878 15.121 10.1214C14.5584 10.684 13.7953 11.0001 12.9996 11.0001C12.2039 11.0001 11.4408 10.684 10.8781 10.1214C10.3155 9.55878 9.99937 8.79571 9.99937 8.00005ZM17.8649 18.7972C16.7938 19.4802 15.4107 19.8612 13.9026 19.9682C13.8273 19.7697 13.7108 19.5893 13.5606 19.4392L13.1206 18.9992C14.8057 18.9832 16.2808 18.6202 17.3268 17.9532C18.3769 17.2832 18.9999 16.3102 18.9999 15.0001C18.9999 14.7349 18.8946 14.4806 18.707 14.293C18.5195 14.1055 18.2651 14.0001 17.9999 14.0001H11.7435C11.6184 13.6472 11.4497 13.3113 11.2415 13.0001H17.9999C18.5303 13.0001 19.0391 13.2108 19.4142 13.5859C19.7893 13.961 20 14.4697 20 15.0001C20 16.6912 19.1669 17.9662 17.8649 18.7972ZM7.49922 19.0002C8.28527 19.0002 9.01131 18.7402 9.59535 18.3032L12.1455 20.8532C12.1919 20.8997 12.2471 20.9366 12.3077 20.9618C12.3684 20.987 12.4335 21 12.4992 21C12.5649 21 12.6299 20.9872 12.6907 20.9621C12.7514 20.937 12.8066 20.9001 12.8531 20.8537C12.8995 20.8073 12.9364 20.7522 12.9616 20.6915C12.9868 20.6308 12.9998 20.5658 12.9998 20.5001C12.9999 20.4344 12.987 20.3693 12.9619 20.3086C12.9368 20.2479 12.9 20.1927 12.8536 20.1462L10.3034 17.5962C10.7754 16.9649 11.0206 16.1929 10.9991 15.405C10.9777 14.6171 10.6909 13.8595 10.1853 13.2548C9.67961 12.6502 8.98466 12.2339 8.21294 12.0734C7.44121 11.9129 6.63791 12.0176 5.93309 12.3705C5.22827 12.7234 4.66321 13.3039 4.32939 14.0179C3.99557 14.7319 3.91254 15.5377 4.09375 16.3048C4.27496 17.0719 4.70979 17.7553 5.32785 18.2445C5.9459 18.7337 6.71098 19 7.49922 19.0002ZM7.49922 18.0002C6.83613 18.0002 6.20021 17.7368 5.73134 17.2679C5.26247 16.7991 4.99906 16.1632 4.99906 15.5001C4.99906 14.8371 5.26247 14.2012 5.73134 13.7324C6.20021 13.2635 6.83613 13.0001 7.49922 13.0001C8.1623 13.0001 8.79822 13.2635 9.2671 13.7324C9.73597 14.2012 9.99937 14.8371 9.99937 15.5001C9.99937 16.1632 9.73597 16.7991 9.2671 17.2679C8.79822 17.7368 8.1623 18.0002 7.49922 18.0002Z" fill="black"/>
</svg>
