<svg width="30" height="30" viewBox="0 0 30 30" fill="none" xmlns="http://www.w3.org/2000/svg">
<path d="M15 9.375C14.0054 9.375 13.0516 9.77009 12.3483 10.4733C11.6451 11.1766 11.25 12.1304 11.25 13.125C11.25 14.1196 11.6451 15.0734 12.3483 15.7766C13.0516 16.4799 14.0054 16.875 15 16.875C15.9946 16.875 16.9484 16.4799 17.6516 15.7766C18.3549 15.0734 18.75 14.1196 18.75 13.125C18.75 12.1304 18.3549 11.1766 17.6516 10.4733C16.9484 9.77009 15.9946 9.375 15 9.375ZM13.125 13.125C13.125 12.6277 13.3225 12.1508 13.6742 11.7992C14.0258 11.4475 14.5027 11.25 15 11.25C15.4973 11.25 15.9742 11.4475 16.3258 11.7992C16.6775 12.1508 16.875 12.6277 16.875 13.125C16.875 13.6223 16.6775 14.0992 16.3258 14.4508C15.9742 14.8025 15.4973 15 15 15C14.5027 15 14.0258 14.8025 13.6742 14.4508C13.3225 14.0992 13.125 13.6223 13.125 13.125ZM9.32625 19.9819C9.3825 19.1944 10.0575 18.75 10.6781 18.75H19.3219C19.9425 18.75 20.6156 19.1962 20.6719 19.9819C20.715 20.5725 20.6625 21.7106 19.8094 22.7062C18.945 23.7188 17.43 24.375 15 24.375C12.57 24.375 11.055 23.7188 10.1888 22.7062C9.3375 21.7106 9.285 20.5725 9.32625 19.9819ZM11.22 20.625C11.2691 20.9433 11.4054 21.2419 11.6137 21.4875C11.9962 21.9319 12.885 22.5 15 22.5C17.115 22.5 18.0037 21.9319 18.3862 21.4875C18.5946 21.2419 18.7309 20.9433 18.78 20.625H11.22ZM13.125 5.625C12.8764 5.625 12.6379 5.72377 12.4621 5.89959C12.2863 6.0754 12.1875 6.31386 12.1875 6.5625C12.1875 6.81114 12.2863 7.0496 12.4621 7.22541C12.6379 7.40123 12.8764 7.5 13.125 7.5H16.875C17.1236 7.5 17.3621 7.40123 17.5379 7.22541C17.7137 7.0496 17.8125 6.81114 17.8125 6.5625C17.8125 6.31386 17.7137 6.0754 17.5379 5.89959C17.3621 5.72377 17.1236 5.625 16.875 5.625H13.125ZM24.375 4.6875C24.375 3.94158 24.0787 3.22621 23.5512 2.69876C23.0238 2.17132 22.3084 1.875 21.5625 1.875H8.4375C7.69158 1.875 6.97621 2.17132 6.44876 2.69876C5.92132 3.22621 5.625 3.94158 5.625 4.6875V25.3125C5.625 26.0584 5.92132 26.7738 6.44876 27.3012C6.97621 27.8287 7.69158 28.125 8.4375 28.125H21.5625C22.3084 28.125 23.0238 27.8287 23.5512 27.3012C24.0787 26.7738 24.375 26.0584 24.375 25.3125V4.6875ZM8.4375 3.75H21.5625C21.8111 3.75 22.0496 3.84877 22.2254 4.02459C22.4012 4.2004 22.5 4.43886 22.5 4.6875V25.3125C22.5 25.5611 22.4012 25.7996 22.2254 25.9754C22.0496 26.1512 21.8111 26.25 21.5625 26.25H8.4375C8.18886 26.25 7.9504 26.1512 7.77459 25.9754C7.59877 25.7996 7.5 25.5611 7.5 25.3125V4.6875C7.5 4.43886 7.59877 4.2004 7.77459 4.02459C7.9504 3.84877 8.18886 3.75 8.4375 3.75Z" fill="black"/>
</svg>
