<svg width="27" height="27" viewBox="0 0 27 27" fill="none" xmlns="http://www.w3.org/2000/svg">
<path d="M21.375 7.875H12.375V15.75H3.375V5.625H1.125V22.5H3.375V19.125H23.625V22.5H25.875V12.375C25.875 11.1815 25.4009 10.0369 24.557 9.19302C23.7131 8.34911 22.5685 7.875 21.375 7.875ZM7.875 14.625C8.77011 14.625 9.62855 14.2694 10.2615 13.6365C10.8944 13.0036 11.25 12.1451 11.25 11.25C11.25 10.3549 10.8944 9.49645 10.2615 8.86351C9.62855 8.23058 8.77011 7.875 7.875 7.875C6.97989 7.875 6.12145 8.23058 5.48851 8.86351C4.85558 9.49645 4.5 10.3549 4.5 11.25C4.5 12.1451 4.85558 13.0036 5.48851 13.6365C6.12145 14.2694 6.97989 14.625 7.875 14.625Z" fill="#B0B0B0"/>
</svg>
