<svg width="35" height="35" viewBox="0 0 35 35" fill="none" xmlns="http://www.w3.org/2000/svg">
<path d="M21.859 11.6875C22.5296 11.6875 23.1851 11.4886 23.7427 11.1161C24.3003 10.7435 24.7349 10.214 24.9915 9.59441C25.2481 8.97486 25.3153 8.29312 25.1845 7.6354C25.0536 6.97768 24.7307 6.37353 24.2565 5.89934C23.7823 5.42516 23.1782 5.10223 22.5205 4.9714C21.8627 4.84057 21.181 4.90772 20.5614 5.16435C19.9419 5.42098 19.4124 5.85556 19.0398 6.41315C18.6672 6.97073 18.4684 7.62627 18.4684 8.29688C18.4684 9.19613 18.8256 10.0585 19.4615 10.6944C20.0973 11.3303 20.9597 11.6875 21.859 11.6875ZM21.859 6.84375C22.1464 6.84375 22.4273 6.92898 22.6663 7.08865C22.9053 7.24832 23.0915 7.47527 23.2015 7.74079C23.3115 8.00631 23.3403 8.29849 23.2842 8.58037C23.2281 8.86225 23.0897 9.12117 22.8865 9.32439C22.6833 9.52761 22.4244 9.66601 22.1425 9.72208C21.8606 9.77815 21.5684 9.74937 21.3029 9.63939C21.0374 9.52941 20.8104 9.34315 20.6508 9.10419C20.4911 8.86522 20.4059 8.58428 20.4059 8.29688C20.4059 7.91148 20.559 7.54188 20.8315 7.26936C21.104 6.99685 21.4736 6.84375 21.859 6.84375ZM32.864 25.7247L26.2571 14.5744C26.0867 14.2839 25.843 14.0433 25.5503 13.8767C25.2577 13.7101 24.9264 13.6233 24.5896 13.625C24.2531 13.6232 23.9219 13.71 23.6295 13.8767C23.337 14.0433 23.0935 14.2839 22.9234 14.5744L19.7556 19.9219L14.3257 10.7066C14.1546 10.4158 13.9106 10.1748 13.6177 10.0073C13.3248 9.83979 12.9933 9.75169 12.6559 9.75169C12.3185 9.75169 11.9869 9.83979 11.694 10.0073C11.4011 10.1748 11.1571 10.4158 10.986 10.7066L2.13402 25.7271C2.04738 25.8742 2.00115 26.0416 2.00002 26.2123C1.99889 26.3831 2.0429 26.5511 2.1276 26.6993C2.21229 26.8476 2.33466 26.9708 2.4823 27.0565C2.62995 27.1422 2.79763 27.1874 2.96836 27.1875H32.0309C32.2018 27.1875 32.3698 27.1422 32.5176 27.0562C32.6654 26.9703 32.7879 26.8468 32.8725 26.6982C32.9571 26.5496 33.0009 26.3813 32.9994 26.2103C32.9979 26.0393 32.9512 25.8718 32.864 25.7247ZM12.6559 11.6875L15.51 16.5313H9.80168L12.6559 11.6875ZM4.66367 25.25L8.65977 18.4688H16.652L18.9213 22.3195L20.648 25.25H4.66367ZM22.8968 25.25L20.8793 21.8255L24.5896 15.5625L30.3355 25.25H22.8968Z" fill="black"/>
</svg>
