<svg width="22" height="20" viewBox="0 0 22 20" fill="none" xmlns="http://www.w3.org/2000/svg">
<path d="M4 1.5H18C19.3867 1.5 20.5 2.61403 20.5 4V11C20.5 12.386 19.3867 13.5 18 13.5H15.4746C15.2504 13.5002 15.029 13.5508 14.8271 13.6484C14.6756 13.7217 14.5381 13.8207 14.4199 13.9395L14.3096 14.0625L11.3848 17.7119V17.7129C11.3379 17.7715 11.2785 17.8191 11.2109 17.8516C11.1434 17.884 11.0691 17.9004 10.9941 17.9004C10.9192 17.9004 10.8449 17.884 10.7773 17.8516C10.7436 17.8353 10.7117 17.8152 10.6826 17.792L10.6035 17.7129V17.7119L7.67773 14.0625C7.53846 13.8875 7.36157 13.7458 7.16016 13.6484C6.95799 13.5508 6.73624 13.5 6.51172 13.5H4C2.61414 13.5 1.5 12.3859 1.5 11V4C1.5 2.61414 2.61414 1.5 4 1.5Z" fill="black" fill-opacity="0.16" stroke="#6A6A6A"/>
<path d="M18 14H15.475C15.3259 14.0001 15.1788 14.0339 15.0446 14.0988C14.9104 14.1638 14.7926 14.2582 14.7 14.375L11.775 18.025C11.6813 18.1422 11.5625 18.2367 11.4273 18.3017C11.2921 18.3667 11.144 18.4005 10.994 18.4005C10.844 18.4005 10.6959 18.3667 10.5607 18.3017C10.4255 18.2367 10.3067 18.1422 10.213 18.025L7.288 14.375C7.19529 14.258 7.07733 14.1636 6.94295 14.0986C6.80857 14.0337 6.66125 14 6.512 14H4C2.338 14 1 12.662 1 11V4C1 2.338 2.338 1 4 1H18C19.663 1 21 2.338 21 4V11C21 12.662 19.663 14 18 14Z" stroke="#6A6A6A" stroke-width="1.5" stroke-miterlimit="10" stroke-linejoin="round"/>
</svg>
