<svg width="28" height="28" viewBox="0 0 28 28" fill="none" xmlns="http://www.w3.org/2000/svg">
<path d="M21.9846 12.2698C23.3939 12.9698 23.3939 15.0313 21.9846 15.7301L7.64389 22.8479C6.21122 23.5596 4.77622 22.2728 4.97805 20.8413L5.60805 16.3729C5.65702 16.0144 5.80665 15.6771 6.03958 15.4002C6.27252 15.1233 6.5792 14.9181 6.92405 14.8084C7.11072 14.7501 7.56572 14.6533 8.10472 14.5436C9.0329 14.3559 9.96237 14.1747 10.8931 13.9999L10.1604 13.8599C9.47448 13.7289 8.78925 13.5943 8.10472 13.4563C7.70841 13.3808 7.31464 13.2924 6.92405 13.1914C6.57904 13.0817 6.27224 12.8763 6.0393 12.5992C5.80635 12.3221 5.65681 11.9845 5.60805 11.6258L4.97805 7.15743C4.77622 5.7271 6.21122 4.44026 7.64389 5.15076L21.9846 12.2698ZM21.2916 13.9999C21.2916 13.9066 21.2496 13.8576 21.2064 13.8366L6.86689 6.71993C6.84122 6.7071 6.82839 6.70826 6.82255 6.70826C6.80502 6.71225 6.78865 6.72024 6.77472 6.7316C6.73389 6.7631 6.69772 6.8226 6.71055 6.9136L7.34055 11.3819C7.35222 11.4694 7.40705 11.5103 7.43739 11.5184C7.52255 11.5453 7.87255 11.6234 8.45355 11.7401C9.01005 11.8544 9.72522 11.9944 10.4906 12.1414C12.0224 12.4354 13.7526 12.7598 14.8119 12.9558L14.8329 12.9593C14.9554 12.9826 15.0849 13.0059 15.1864 13.0316C15.2401 13.0444 15.3252 13.0678 15.4127 13.1074C15.5929 13.1822 15.745 13.3115 15.8479 13.4773C15.9452 13.6342 15.9968 13.8152 15.9968 13.9999C15.9968 14.1846 15.9452 14.3656 15.8479 14.5226C15.745 14.6883 15.5929 14.8176 15.4127 14.8924C15.3401 14.9254 15.2642 14.9508 15.1864 14.9683C15.0693 14.996 14.9514 15.0201 14.8329 15.0406L14.8119 15.0441C13.7526 15.2413 12.0236 15.5644 10.4906 15.8584C9.72405 16.0054 9.00889 16.1454 8.45355 16.2586C7.87255 16.3764 7.52255 16.4546 7.43739 16.4803C7.40705 16.4908 7.35339 16.5304 7.34055 16.6179L6.71055 21.0863C6.69889 21.1773 6.73389 21.2368 6.77472 21.2683C6.78865 21.2796 6.80502 21.2876 6.82255 21.2916C6.82839 21.2916 6.84122 21.2928 6.86689 21.2799L21.2064 14.1633C21.2496 14.1423 21.2916 14.0933 21.2916 13.9999Z" fill="#6A6A6A"/>
</svg>
