<svg width="19" height="19" viewBox="0 0 19 19" fill="none" xmlns="http://www.w3.org/2000/svg">
<path d="M9.5 9.5C8.19375 9.5 7.07552 9.0349 6.14531 8.10469C5.2151 7.17448 4.75 6.05625 4.75 4.75C4.75 3.44375 5.2151 2.32552 6.14531 1.39531C7.07552 0.465104 8.19375 0 9.5 0C10.8062 0 11.9245 0.465104 12.8547 1.39531C13.7849 2.32552 14.25 3.44375 14.25 4.75C14.25 6.05625 13.7849 7.17448 12.8547 8.10469C11.9245 9.0349 10.8062 9.5 9.5 9.5ZM0 16.625V15.675C0 15.0021 0.173375 14.3838 0.520125 13.8201C0.866875 13.2565 1.32683 12.8258 1.9 12.5281C3.12708 11.9146 4.37396 11.4546 5.64062 11.1482C6.90729 10.8419 8.19375 10.6883 9.5 10.6875C10.8062 10.6867 12.0927 10.8403 13.3594 11.1482C14.626 11.4562 15.8729 11.9162 17.1 12.5281C17.674 12.825 18.1343 13.2557 18.4811 13.8201C18.8278 14.3846 19.0008 15.0029 19 15.675V16.625C19 17.2781 18.7676 17.8374 18.3029 18.3029C17.8382 18.7684 17.2789 19.0008 16.625 19H2.375C1.72187 19 1.16296 18.7676 0.69825 18.3029C0.233541 17.8382 0.000791667 17.2789 0 16.625ZM2.375 16.625H16.625V15.675C16.625 15.4573 16.5708 15.2594 16.4623 15.0812C16.3539 14.9031 16.2102 14.7646 16.0312 14.6656C14.9625 14.1313 13.8839 13.7307 12.7953 13.4639C11.7068 13.1971 10.6083 13.0633 9.5 13.0625C8.39167 13.0617 7.29323 13.1955 6.20469 13.4639C5.11615 13.7323 4.0375 14.1328 2.96875 14.6656C2.79062 14.7646 2.64694 14.9031 2.53769 15.0812C2.42844 15.2594 2.37421 15.4573 2.375 15.675V16.625ZM9.5 7.125C10.1531 7.125 10.7124 6.89265 11.1779 6.42794C11.6434 5.96323 11.8758 5.40392 11.875 4.75C11.8742 4.09608 11.6419 3.53717 11.1779 3.07325C10.714 2.60933 10.1547 2.37658 9.5 2.375C8.84529 2.37342 8.28637 2.60617 7.82325 3.07325C7.36012 3.54033 7.12737 4.09925 7.125 4.75C7.12262 5.40075 7.35537 5.96006 7.82325 6.42794C8.29112 6.89581 8.85004 7.12817 9.5 7.125Z" fill="#646464"/>
</svg>
