<svg width="72" height="72" viewBox="0 0 72 72" fill="none" xmlns="http://www.w3.org/2000/svg">
<path d="M51 21H21C19.3438 21 18 22.3438 18 24V46C18 47.6562 19.3438 49 21 49H51C52.6562 49 54 47.6562 54 46V24C54 22.3438 52.6562 21 51 21ZM51 46H21V24H51V46ZM31 35C33.2063 35 35 33.2063 35 31C35 28.7937 33.2063 27 31 27C28.7937 27 27 28.7937 27 31C27 33.2063 28.7937 35 31 35ZM25.4 43H36.6C37.375 43 38 42.4625 38 41.8V40.6C38 38.6125 36.1187 37 33.8 37C33.125 37 32.6313 37.5 31 37.5C29.3188 37.5 28.9125 37 28.2 37C25.8812 37 24 38.6125 24 40.6V41.8C24 42.4625 24.625 43 25.4 43ZM40.5 39H47.5C47.775 39 48 38.775 48 38.5V37.5C48 37.225 47.775 37 47.5 37H40.5C40.225 37 40 37.225 40 37.5V38.5C40 38.775 40.225 39 40.5 39ZM40.5 35H47.5C47.775 35 48 34.775 48 34.5V33.5C48 33.225 47.775 33 47.5 33H40.5C40.225 33 40 33.225 40 33.5V34.5C40 34.775 40.225 35 40.5 35ZM40.5 31H47.5C47.775 31 48 30.775 48 30.5V29.5C48 29.225 47.775 29 47.5 29H40.5C40.225 29 40 29.225 40 29.5V30.5C40 30.775 40.225 31 40.5 31Z" fill="#0066CC"/>
<path d="M31.2263 6.26966C33.6275 3.11599 38.3725 3.11598 40.7737 6.26965L42.5304 8.57681C43.9528 10.4449 46.3342 11.3117 48.6247 10.7949L51.4534 10.1567C55.32 9.28435 58.9549 12.3344 58.7672 16.2937L58.6299 19.1903C58.5187 21.5357 59.7858 23.7304 61.8726 24.8068L64.4497 26.1362C67.9724 27.9533 68.7964 32.6262 66.1076 35.5386L64.1406 37.6692C62.5478 39.3944 62.1077 41.8902 63.0144 44.0561L64.1341 46.731C65.6647 50.3873 63.2921 54.4967 59.3604 54.9994L56.484 55.3671C54.1549 55.6649 52.2136 57.2939 51.5159 59.5358L50.6542 62.3047C49.4764 66.0894 45.0176 67.7123 41.6825 65.5701L39.2427 64.0029C37.2671 62.7339 34.7329 62.7339 32.7573 64.0029L30.3175 65.5701C26.9825 67.7123 22.5236 66.0894 21.3458 62.3047L20.4841 59.5358C19.7864 57.2939 17.8451 55.6649 15.516 55.3671L12.6396 54.9994C8.70787 54.4967 6.33534 50.3873 7.86589 46.731L8.98561 44.0561C9.89226 41.8902 9.45219 39.3944 7.85944 37.6692L5.89236 35.5386C3.20357 32.6262 4.02755 27.9533 7.55027 26.1362L10.1274 24.8068C12.2142 23.7304 13.4813 21.5357 13.3701 19.1903L13.2328 16.2937C13.0451 12.3344 16.68 9.28435 20.5466 10.1567L23.3753 10.7949C25.6658 11.3117 28.0472 10.445 29.4696 8.57681L31.2263 6.26966Z" fill="#2196F3" fill-opacity="0.1"/>
</svg>
