<svg width="34" height="25" viewBox="0 0 34 25" fill="none" xmlns="http://www.w3.org/2000/svg">
<path d="M18.75 4.33203V3.125H19.7917C20.3672 3.125 20.8333 2.65885 20.8333 2.08333V1.04167C20.8333 0.466146 20.3672 0 19.7917 0H13.5417C12.9661 0 12.5 0.466146 12.5 1.04167V2.08333C12.5 2.65885 12.9661 3.125 13.5417 3.125H14.5833V4.33203C7.51888 5.3457 2.08333 11.4049 2.08333 18.75H31.25C31.25 11.4049 25.8145 5.3457 18.75 4.33203ZM32.2917 20.8333H1.04167C0.466146 20.8333 0 21.2995 0 21.875V23.9583C0 24.5339 0.466146 25 1.04167 25H32.2917C32.8672 25 33.3333 24.5339 33.3333 23.9583V21.875C33.3333 21.2995 32.8672 20.8333 32.2917 20.8333Z" fill="#0066CC"/>
</svg>
