<svg width="14" height="12" viewBox="0 0 14 12" fill="none" xmlns="http://www.w3.org/2000/svg">
<path fill-rule="evenodd" clip-rule="evenodd" d="M11 4.5C11.3978 4.5 11.7794 4.34197 12.0607 4.06066C12.342 3.77936 12.5 3.39783 12.5 3C12.5 2.60218 12.342 2.22065 12.0607 1.93934C11.7794 1.65804 11.3978 1.5 11 1.5C10.6022 1.5 10.2206 1.65804 9.93934 1.93934C9.65804 2.22065 9.5 2.60218 9.5 3C9.5 3.39783 9.65804 3.77936 9.93934 4.06066C10.2206 4.34197 10.6022 4.5 11 4.5ZM11 6C11.5611 5.99995 12.1109 5.84255 12.587 5.54568C13.0632 5.24881 13.4465 4.82436 13.6935 4.32055C13.9404 3.81675 14.0412 3.25377 13.9843 2.69558C13.9273 2.13738 13.715 1.60635 13.3714 1.16278C13.0278 0.719214 12.5666 0.380902 12.0404 0.186272C11.5141 -0.00835901 10.9438 -0.0515066 10.3943 0.0617298C9.84475 0.174966 9.33797 0.440048 8.93153 0.826864C8.52509 1.21368 8.23527 1.70673 8.095 2.25H0.75C0.551088 2.25 0.360322 2.32902 0.21967 2.46967C0.0790178 2.61032 1.72909e-07 2.80109 1.72909e-07 3C1.72909e-07 3.19891 0.0790178 3.38968 0.21967 3.53033C0.360322 3.67098 0.551088 3.75 0.75 3.75H8.095C8.26128 4.39401 8.63687 4.9645 9.16272 5.37179C9.68857 5.77908 10.3349 6.00006 11 6ZM4.5 9C4.5 9.39783 4.34196 9.77936 4.06066 10.0607C3.77936 10.342 3.39782 10.5 3 10.5C2.60218 10.5 2.22064 10.342 1.93934 10.0607C1.65804 9.77936 1.5 9.39783 1.5 9C1.5 8.60218 1.65804 8.22065 1.93934 7.93934C2.22064 7.65804 2.60218 7.5 3 7.5C3.39782 7.5 3.77936 7.65804 4.06066 7.93934C4.34196 8.22065 4.5 8.60218 4.5 9ZM5.905 9.75C5.7211 10.4557 5.28652 11.0703 4.68249 11.4789C4.07846 11.8875 3.34631 12.0622 2.62287 11.9703C1.89943 11.8784 1.23419 11.5262 0.751491 10.9796C0.26879 10.433 0.00165165 9.72926 1.72909e-07 9C-0.000247669 8.26964 0.265947 7.56428 0.748665 7.01618C1.23138 6.46809 1.89747 6.11492 2.622 6.02289C3.34654 5.93087 4.07977 6.10631 4.68417 6.51633C5.28858 6.92635 5.72266 7.54277 5.905 8.25H13.25C13.4489 8.25 13.6397 8.32902 13.7803 8.46967C13.921 8.61032 14 8.80109 14 9C14 9.19891 13.921 9.38968 13.7803 9.53033C13.6397 9.67098 13.4489 9.75 13.25 9.75H5.905Z" fill="black"/>
</svg>
