<svg width="31" height="36" viewBox="0 0 31 36" fill="none" xmlns="http://www.w3.org/2000/svg">
<path d="M20.7692 28.4615V29.7692C20.7692 31.1565 20.2142 32.487 19.2262 33.4679C18.2382 34.4489 16.8982 35 15.501 35C14.1038 35 12.7638 34.4489 11.7758 33.4679C10.7878 32.487 10.2327 31.1565 10.2327 29.7692V28.4615M29.6331 25.7996C27.5192 23.2308 26.0268 21.9231 26.0268 14.8411C26.0268 8.35577 22.6913 6.04524 19.9461 4.92308C19.5814 4.77433 19.2382 4.43269 19.127 4.06082C18.6455 2.43356 17.2955 1 15.501 1C13.7065 1 12.3557 2.43438 11.8791 4.06245C11.7679 4.43841 11.4247 4.77433 11.06 4.92308C8.31146 6.04687 4.97928 8.34923 4.97928 14.8411C4.97516 21.9231 3.48277 23.2308 1.36888 25.7996C0.493028 26.8637 1.26022 28.4615 2.79213 28.4615H28.2181C29.7417 28.4615 30.504 26.8588 29.6331 25.7996Z" stroke="#B0B0B0" stroke-width="1.5" stroke-linecap="round" stroke-linejoin="round"/>
</svg>
