<svg width="72" height="72" viewBox="0 0 72 72" fill="none" xmlns="http://www.w3.org/2000/svg">
<path d="M20.4096 9.28223C30.0558 3.71301 41.9403 3.71301 51.5865 9.28223V9.28223C61.2327 14.8514 67.175 25.1438 67.175 36.2822V36.2822C67.175 47.4207 61.2327 57.713 51.5865 63.2822V63.2822C41.9403 68.8514 30.0558 68.8514 20.4096 63.2822V63.2822C10.7634 57.713 4.82113 47.4207 4.82113 36.2822V36.2822C4.82113 25.1438 10.7634 14.8514 20.4096 9.28223V9.28223Z" fill="#2196F3" fill-opacity="0.1"/>
<path d="M45.3438 27.8438H40.9688V23.4688C40.9688 23.1787 40.8535 22.9005 40.6484 22.6954C40.4433 22.4902 40.1651 22.375 39.875 22.375C39.5849 22.375 39.3067 22.4902 39.1016 22.6954C38.8965 22.9005 38.7812 23.1787 38.7812 23.4688V27.8438H32.2188V23.4688C32.2188 23.1787 32.1035 22.9005 31.8984 22.6954C31.6933 22.4902 31.4151 22.375 31.125 22.375C30.8349 22.375 30.5567 22.4902 30.3516 22.6954C30.1465 22.9005 30.0312 23.1787 30.0312 23.4688V27.8438H25.6562C25.3662 27.8438 25.088 27.959 24.8829 28.1641C24.6777 28.3692 24.5625 28.6474 24.5625 28.9375C24.5625 29.2276 24.6777 29.5058 24.8829 29.7109C25.088 29.916 25.3662 30.0312 25.6562 30.0312H26.75V34.4062C26.75 38.4827 29.5413 41.8973 33.3125 42.8697V46.4375C33.3125 47.0177 33.543 47.5741 33.9532 47.9843C34.3634 48.3945 34.9198 48.625 35.5 48.625C36.0802 48.625 36.6366 48.3945 37.0468 47.9843C37.457 47.5741 37.6875 47.0177 37.6875 46.4375V42.8697C41.4587 41.8973 44.25 38.4827 44.25 34.4062V30.0312H45.3438C45.6338 30.0312 45.912 29.916 46.1171 29.7109C46.3223 29.5058 46.4375 29.2276 46.4375 28.9375C46.4375 28.6474 46.3223 28.3692 46.1171 28.1641C45.912 27.959 45.6338 27.8438 45.3438 27.8438Z" fill="#0066CC"/>
</svg>
